<svg xmlns="http://www.w3.org/2000/svg" width="760" height="400" viewBox="0 0 760 400" role="img" aria-label="Natural-language search: right file in the top 10">
<rect width="760" height="400" fill="#1a1a19"/>
<text x="24" y="32" font-family="system-ui,-apple-system,'Segoe UI',sans-serif" font-size="16" font-weight="600" fill="#ffffff">Natural-language search: right file in the top 10</text>
<text x="24" y="52" font-family="system-ui,-apple-system,'Segoe UI',sans-serif" font-size="12" fill="#c3c2b7">recall@10 on 45 queries built from each repo's own doc comments — higher is better</text>
<rect x="24" y="65" width="10" height="10" rx="2" fill="#3987e5"/>
<text x="39" y="74" font-family="system-ui,-apple-system,'Segoe UI',sans-serif" font-size="11.5" fill="#c3c2b7">semble</text>
<rect x="91" y="65" width="10" height="10" rx="2" fill="#d95926"/>
<text x="106" y="74" font-family="system-ui,-apple-system,'Segoe UI',sans-serif" font-size="11.5" fill="#c3c2b7">pixel search-meaning</text>
<rect x="255" y="65" width="10" height="10" rx="2" fill="#199e70"/>
<text x="270" y="74" font-family="system-ui,-apple-system,'Segoe UI',sans-serif" font-size="11.5" fill="#c3c2b7">pixel find-code</text>
<rect x="384" y="65" width="10" height="10" rx="2" fill="#9a70e0"/>
<text x="399" y="74" font-family="system-ui,-apple-system,'Segoe UI',sans-serif" font-size="11.5" fill="#c3c2b7">WarpGrep</text>
<line x1="58" y1="336.0" x2="736" y2="336.0" stroke="#2c2c2a" stroke-width="1"/>
<text x="48" y="340.0" text-anchor="end" font-family="system-ui,-apple-system,'Segoe UI',sans-serif" font-size="11" fill="#898781">0.00</text>
<line x1="58" y1="278.0" x2="736" y2="278.0" stroke="#2c2c2a" stroke-width="1"/>
<text x="48" y="282.0" text-anchor="end" font-family="system-ui,-apple-system,'Segoe UI',sans-serif" font-size="11" fill="#898781">0.25</text>
<line x1="58" y1="220.0" x2="736" y2="220.0" stroke="#2c2c2a" stroke-width="1"/>
<text x="48" y="224.0" text-anchor="end" font-family="system-ui,-apple-system,'Segoe UI',sans-serif" font-size="11" fill="#898781">0.50</text>
<line x1="58" y1="162.0" x2="736" y2="162.0" stroke="#2c2c2a" stroke-width="1"/>
<text x="48" y="166.0" text-anchor="end" font-family="system-ui,-apple-system,'Segoe UI',sans-serif" font-size="11" fill="#898781">0.75</text>
<line x1="58" y1="104.0" x2="736" y2="104.0" stroke="#2c2c2a" stroke-width="1"/>
<text x="48" y="108.0" text-anchor="end" font-family="system-ui,-apple-system,'Segoe UI',sans-serif" font-size="11" fill="#898781">1.00</text>
<rect x="100.0" y="104.0" width="34.0" height="232.0" rx="4" fill="#3987e5"/>
<text x="117.0" y="98.0" text-anchor="middle" font-family="system-ui,-apple-system,'Segoe UI',sans-serif" font-size="10.5" fill="#c3c2b7">1.00</text>
<rect x="136.0" y="104.0" width="34.0" height="232.0" rx="4" fill="#d95926"/>
<text x="153.0" y="98.0" text-anchor="middle" font-family="system-ui,-apple-system,'Segoe UI',sans-serif" font-size="10.5" fill="#c3c2b7">1.00</text>
<rect x="172.0" y="319.8" width="34.0" height="16.2" rx="4" fill="#199e70"/>
<text x="189.0" y="313.8" text-anchor="middle" font-family="system-ui,-apple-system,'Segoe UI',sans-serif" font-size="10.5" fill="#c3c2b7">0.07</text>
<rect x="208.0" y="166.6" width="34.0" height="169.4" rx="4" fill="#9a70e0"/>
<text x="225.0" y="160.6" text-anchor="middle" font-family="system-ui,-apple-system,'Segoe UI',sans-serif" font-size="10.5" fill="#c3c2b7">0.73</text>
<text x="171.0" y="356" text-anchor="middle" font-family="system-ui,-apple-system,'Segoe UI',sans-serif" font-size="12" fill="#ffffff">Rust</text>
<rect x="326.0" y="104.0" width="34.0" height="232.0" rx="4" fill="#3987e5"/>
<text x="343.0" y="98.0" text-anchor="middle" font-family="system-ui,-apple-system,'Segoe UI',sans-serif" font-size="10.5" fill="#c3c2b7">1.00</text>
<rect x="362.0" y="120.2" width="34.0" height="215.8" rx="4" fill="#d95926"/>
<text x="379.0" y="114.2" text-anchor="middle" font-family="system-ui,-apple-system,'Segoe UI',sans-serif" font-size="10.5" fill="#c3c2b7">0.93</text>
<text x="415.0" y="330.0" text-anchor="middle" font-family="system-ui,-apple-system,'Segoe UI',sans-serif" font-size="10.5" fill="#c3c2b7">0.00</text>
<rect x="434.0" y="196.8" width="34.0" height="139.2" rx="4" fill="#9a70e0"/>
<text x="451.0" y="190.8" text-anchor="middle" font-family="system-ui,-apple-system,'Segoe UI',sans-serif" font-size="10.5" fill="#c3c2b7">0.60</text>
<text x="397.0" y="356" text-anchor="middle" font-family="system-ui,-apple-system,'Segoe UI',sans-serif" font-size="12" fill="#ffffff">TypeScript</text>
<rect x="552.0" y="104.0" width="34.0" height="232.0" rx="4" fill="#3987e5"/>
<text x="569.0" y="98.0" text-anchor="middle" font-family="system-ui,-apple-system,'Segoe UI',sans-serif" font-size="10.5" fill="#c3c2b7">1.00</text>
<rect x="588.0" y="120.2" width="34.0" height="215.8" rx="4" fill="#d95926"/>
<text x="605.0" y="114.2" text-anchor="middle" font-family="system-ui,-apple-system,'Segoe UI',sans-serif" font-size="10.5" fill="#c3c2b7">0.93</text>
<rect x="624.0" y="319.8" width="34.0" height="16.2" rx="4" fill="#199e70"/>
<text x="641.0" y="313.8" text-anchor="middle" font-family="system-ui,-apple-system,'Segoe UI',sans-serif" font-size="10.5" fill="#c3c2b7">0.07</text>
<rect x="660.0" y="150.4" width="34.0" height="185.6" rx="4" fill="#9a70e0"/>
<text x="677.0" y="144.4" text-anchor="middle" font-family="system-ui,-apple-system,'Segoe UI',sans-serif" font-size="10.5" fill="#c3c2b7">0.80</text>
<text x="623.0" y="356" text-anchor="middle" font-family="system-ui,-apple-system,'Segoe UI',sans-serif" font-size="12" fill="#ffffff">Ruby</text>
<line x1="58" y1="336" x2="736" y2="336" stroke="#383835" stroke-width="1"/>
<text x="24" y="382" font-family="system-ui,-apple-system,'Segoe UI',sans-serif" font-size="11" fill="#898781">pixel 0.6.0; WarpGrep from its 2026-09-27 run. semble leads on TypeScript and Ruby, ties on Rust. find-code: a phrase index.</text>
</svg>